<?xml version="1.0" standalone="no"?>
<!DOCTYPE svg PUBLIC "-//W3C//DTD SVG 20010904//EN"
 "http://www.w3.org/TR/2001/REC-SVG-20010904/DTD/svg10.dtd">
<svg version="1.0" xmlns="http://www.w3.org/2000/svg"
 width="1208.000000pt" height="1280.000000pt" viewBox="0 0 1208.000000 1280.000000"
 preserveAspectRatio="xMidYMid meet">
<metadata>
Created by potrace 1.15, written by Peter Selinger 2001-2017
</metadata>
<g transform="translate(0.000000,1280.000000) scale(0.100000,-0.100000)"
fill="#000000" stroke="none">
<path d="M5725 12775 c-4 -11 -88 -296 -188 -634 l-182 -614 -150 -69 c-82
-39 -153 -73 -157 -77 -4 -4 45 1 110 10 64 10 127 18 140 18 l22 1 0 -532 c0
-484 -2 -544 -20 -653 -18 -111 -20 -170 -20 -775 0 -583 2 -662 17 -710 13
-45 17 -120 22 -399 l6 -343 100 -45 c55 -25 101 -46 102 -47 1 -1 23 -123 48
-271 25 -149 80 -465 121 -704 41 -238 74 -442 74 -452 0 -11 5 -19 10 -19 6
0 10 31 10 73 1 190 234 4871 245 4894 0 1 122 -23 269 -53 148 -29 271 -52
273 -50 4 4 -109 209 -249 451 -121 209 -532 895 -534 892 -2 -2 41 -144 96
-317 100 -318 186 -567 234 -673 l26 -57 -48 25 c-26 13 -65 31 -87 38 -31 11
-41 20 -48 46 -4 18 -59 265 -122 550 -68 308 -116 508 -120 496z"/>
<path d="M6138 10318 c-1 -790 -3 -923 -9 -648 -16 736 -37 1360 -45 1335 -2
-5 -17 -199 -34 -430 -16 -231 -39 -537 -50 -680 -18 -241 -20 -357 -20 -1554
l0 -1295 45 -385 c63 -541 60 -523 68 -371 12 193 26 618 34 1020 8 356 8 346
13 -407 l5 -772 199 122 198 122 -6 490 c-4 270 -11 924 -16 1455 -6 531 -15
1334 -20 1785 -6 451 -10 874 -10 941 l0 121 -167 71 c-93 40 -171 72 -175 72
-5 0 -9 -447 -10 -992z"/>
<path d="M11530 9863 c-256 -13 -466 -26 -467 -27 -2 -2 -2 -825 -1 -1830 l3
-1827 95 211 95 211 5 -290 5 -290 303 507 303 507 -6 200 -6 200 82 205 c78
197 82 209 85 300 3 52 13 435 24 850 11 415 23 833 26 928 l6 172 -43 -1
c-24 -1 -253 -13 -509 -26z m339 -450 c-1 -216 -25 -1084 -27 -993 -1 36 -7
290 -13 565 -6 275 -12 501 -14 503 -3 3 -479 42 -517 42 -24 0 -28 4 -28 30
l0 30 300 0 300 0 -1 -177z"/>
<path d="M9790 7290 c0 -671 2 -1220 4 -1220 2 0 50 57 105 126 l101 127 0
111 c0 61 5 275 10 476 5 201 14 608 21 905 6 297 12 541 13 542 0 1 24 -3 51
-8 28 -5 65 -11 84 -14 l33 -6 -56 -27 -57 -27 -7 -560 c-12 -958 -9 -1392 12
-1525 18 -117 40 -184 69 -208 22 -19 533 -75 558 -61 11 5 20 26 24 52 4 24
5 328 3 675 -1 348 0 618 3 600 4 -18 12 -94 19 -168 7 -74 16 -153 20 -175 4
-22 8 330 9 783 l1 822 -510 0 -510 0 0 -1220z"/>
<path d="M4055 7490 l100 -100 215 0 c125 0 365 -11 575 -25 198 -14 366 -25
373 -25 13 0 18 -85 5 -93 -5 -3 -111 8 -238 23 -126 16 -381 47 -565 70 -184
22 -352 43 -372 46 l-38 6 0 -179 0 -178 203 -24 c111 -13 203 -24 203 -24 2
-2 17 -869 35 -1892 6 -352 13 -710 17 -796 l7 -156 327 531 327 531 20 420
c12 231 28 573 36 760 9 187 17 349 20 360 2 11 2 -43 0 -120 -3 -77 -9 -327
-16 -555 l-11 -415 100 -295 100 -295 1 1263 1 1262 -762 0 -763 0 100 -100z"/>
<path d="M2990 6123 l0 -758 75 224 75 225 0 408 0 409 73 -7 c39 -3 73 -7 74
-8 2 -2 -169 -1250 -185 -1352 -5 -29 -3 -228 4 -455 7 -222 18 -600 25 -839
6 -239 15 -439 19 -443 8 -9 1254 -615 1258 -612 1 1 -14 166 -33 366 -41 433
-126 1333 -230 2434 -41 440 -77 815 -79 833 -4 27 -2 32 15 32 11 0 21 -6 24
-12 2 -7 20 -200 40 -428 19 -228 57 -667 85 -975 27 -308 77 -884 111 -1280
56 -663 65 -755 72 -744 1 2 1 844 -1 1872 l-2 1867 -710 0 -710 0 0 -757z"/>
<path d="M2380 6422 l-245 -197 -2 -630 c-1 -347 1 -625 3 -619 3 6 24 119 48
250 l44 239 1 -1122 1 -1123 356 0 356 0 -6 293 c-4 160 -11 578 -16 927 -5
349 -15 955 -20 1345 -6 391 -12 715 -13 722 -1 8 -79 -24 -202 -81 -110 -51
-201 -92 -203 -91 -2 2 25 56 61 122 81 150 88 163 85 163 -2 0 -113 -89 -248
-198z"/>
<path d="M7255 5628 c3 -46 15 -292 26 -548 10 -256 28 -665 39 -909 11 -244
23 -523 27 -620 l6 -176 64 -135 64 -134 -13 -123 -14 -123 31 0 c42 0 4078
299 4080 302 0 2 -2 156 -6 343 -4 187 -12 576 -18 865 -6 289 -14 650 -17
802 l-7 277 -126 4 -126 3 151 2 152 2 6 -177 c11 -288 25 -776 33 -1085 3
-159 9 -288 13 -288 3 0 13 37 22 83 9 45 42 197 72 337 l56 255 0 563 0 562
-2261 0 -2260 0 6 -82z m403 -532 c2 -307 2 -315 -42 -730 -25 -232 -47 -434
-49 -451 -2 -16 -5 313 -6 733 l-1 763 48 -3 47 -3 3 -309z"/>
<path d="M6735 5401 l-290 -149 -2 -519 c-2 -285 1 -776 5 -1091 l7 -573 60
45 c33 25 63 46 68 46 4 0 7 -56 7 -125 0 -69 2 -125 4 -125 9 0 548 149 552
153 2 2 27 115 55 253 l51 249 -6 205 c-3 113 -15 547 -27 965 -12 418 -23
761 -24 763 -2 2 -121 -95 -265 -215 -144 -120 -266 -219 -271 -221 -5 -2 -9
6 -9 17 0 17 233 298 368 444 14 15 22 27 16 27 -5 0 -139 -67 -299 -149z"/>
<path d="M1020 2746 c0 -2 9 -23 20 -47 26 -58 26 -131 -1 -187 -47 -95 -141
-168 -523 -402 -208 -127 -303 -198 -417 -307 -125 -121 -130 -171 -24 -219
140 -64 304 -74 1248 -74 436 0 866 -5 957 -10 503 -31 767 -121 810 -275 7
-25 11 -47 9 -50 -2 -2 -64 5 -138 15 -239 34 -398 43 -648 37 -306 -7 -444
-33 -603 -112 -172 -86 -266 -216 -285 -393 l-7 -57 49 -19 c26 -11 154 -66
283 -124 671 -297 1057 -408 1655 -476 323 -37 460 -41 1235 -39 1209 2 1435
20 1876 149 87 26 213 61 279 79 121 34 134 43 34 25 -81 -14 -386 -47 -634
-67 -316 -26 -1278 -26 -1610 0 -787 61 -1404 161 -2010 323 -164 44 -564 172
-604 193 -27 15 -35 62 -17 104 26 64 142 109 346 137 117 15 497 30 780 29
l235 0 -140 -40 c-233 -66 -417 -108 -524 -121 l-101 -12 0 -30 c0 -38 30
-105 58 -129 29 -26 89 -46 139 -47 32 0 45 -5 54 -21 43 -81 454 -142 1099
-164 161 -6 416 -24 1065 -75 637 -50 1301 -67 1600 -41 242 21 429 64 520
117 40 23 102 81 94 87 -2 2 -168 44 -369 94 -355 88 -367 92 -445 140 -44 28
-120 74 -168 104 -150 92 -227 188 -240 297 -5 38 -3 43 11 39 9 -3 64 -18
122 -35 438 -128 1032 -75 1830 162 63 19 108 36 100 39 -8 3 -103 24 -210 47
-780 167 -1210 320 -1210 431 0 75 95 114 585 239 644 164 1256 260 1919 300
223 14 791 14 991 0 283 -19 564 -56 647 -86 36 -13 44 -12 114 16 41 17 195
75 342 129 384 143 499 195 489 224 -6 19 -52 25 -242 27 l-180 2 286 33 c157
18 296 35 310 38 13 2 -2421 5 -5408 6 -2988 0 -5433 -1 -5433 -3z m2315 -166
c435 -6 1130 -14 1545 -20 415 -5 1201 -14 1745 -20 545 -6 1046 -14 1115 -17
l125 -6 -520 -53 -520 -52 -310 9 c-170 5 -328 11 -350 14 -23 4 -65 0 -100
-9 -83 -22 -326 -21 -722 4 l-320 20 -697 -50 c-383 -27 -747 -50 -809 -50
-135 0 -273 11 -597 47 -188 20 -297 27 -470 27 -256 1 -325 -10 -565 -89
-155 -51 -254 -98 -316 -154 -83 -73 -86 -132 -8 -171 35 -19 68 -23 250 -31
594 -26 1214 -151 1804 -364 128 -46 411 -169 430 -186 9 -9 -1 -61 -24 -122
l-11 -28 -49 39 c-199 157 -641 283 -1290 367 -370 48 -507 56 -1091 65 -316
5 -606 14 -643 20 -159 24 -177 60 -62 124 110 61 194 118 275 186 110 92 185
142 285 193 94 47 128 76 138 115 9 36 -17 106 -59 163 l-38 52 535 -7 c293
-3 890 -11 1324 -16z"/>
</g>
</svg>
