<svg version="1.2" xmlns="http://www.w3.org/2000/svg" viewBox="0 0 400 495" width="400" height="495">
	<title>cr-flamengo-new-seeklogo</title>
	<style>
		.s0 { fill: #000200 } 
		.s1 { fill: #c52613 } 
		.s2 { fill: #ffffff } 
	</style>
	<g id="Path">
		<path id="Path 1" class="s0" d="m0.5 174.7v-174.3h399.5v174.3c0.6 163.5-72.1 265-199.8 319.9c-127.6-54.9-200.3-156.4-199.7-319.9z" />
		<path id="Path 2" fill-rule="evenodd" class="s1" d="m200.2 475.7c-31.2-14.2-58.7-31.4-82.2-51.9h164.5c-23.5 20.5-51.1 37.7-82.3 51.9zm-135.4-114.3h270.9c11-18 20.1-37.6 27.2-58.9h-325.3c7.1 21.3 16.2 40.9 27.2 58.9zm-41.6-121.3h354.1q3.9-27.9 4.2-58.9h-362.5q0.3 31 4.2 58.9zm182.2-121.3h176v-58.9h-176zm-186.4 47.1h170.7v-146.5h-170.7z" />
		<path id="Path 3" class="s2" d="m107.6 133.7c-5.4 3.5-20.7 3.5-27.6 2.4c-8.5-1.5-16.6-5.4-22.2-9.6c-10.2-7.7-20.7-21.5-24.4-39.3c0.1 0 0.3-0.2 0.3-0.1c0 0.1 0.2-0.1 0.3-0.1c3.5-1.6 4.1-2.2 6.6-7c1.8-3.3 3.1-6.2 4.9-9.5c2.8-5 8.5-12.7 12.9-16.2c5.1-4.1 10.4-8.1 18.2-10.8c3.6-1.2 23.6-6.3 25.7-2.1c1.9 3.9 1.3 16.5-0.1 21.8c-0.3 1-0.5 1.9-1.2 2.6c-1.5-2.9-2.6-5.3-4.6-6.9c-1.6-1.4-4.6-3.3-7.7-4c-6.9-1.7-13.8 0.3-19.1 3.3c-24.4 14.2-21.2 65 17.7 68.8c8.8 0.9 13-0.8 20.3-3.1zm17.8-101.1c14.6 6.7 22.2 18.2 29 34.5c-1.4 1.1-2.6 0.7-4.1 2.7c-2.9 3.7-4.7 14.7-11.9 23c-1.6 1.9-2.2 1.7-5.2 1.6c-2.2 0-4.5 0.2-6.7-0.1c2-2 4.4-5.7 5.9-9.5c1.5-4.1 2.3-8.8 2.2-13.5c-0.2-19.3-11.8-31.2-30.5-33.8c-12.8-1.7-18.1 1-28.4 3.3l-6-16c4.6 1.2 8 2.4 13.2 2.6c14.4 0.7 27.5-1.7 42.5 5.2zm-36 91.6c-3.9 0.1-10.3-1.5-13-3v-62.9c3.6-1.6 9-1.4 12.8-0.4l0.2 38.5c23.1 1.5 29.1 6.1 42 22.4c8.2 10.3 15.9 28 32.1 21.2c1.9-0.8 3.9-2.3 5.3-2.8c-1.2 9.7-9.7 18-17 21.2c-4.5 2-6.7-1.8-10.8-6.5c-17.4-20.2-20.9-45.8-51.5-44.8zm19.7 24.1c2.2-6.2 1.5-25.1 1.4-32.4c2.3 1.2 5.8 5.5 7.7 8c4.1 5.5 5.3 6.2 5.3 11c-0.1 7.1 0 14.4 4.4 20l4.3 4.2c-9.6 1.7-21.9 1.9-27.6-4.5c1.9-2.4 3.1-2.4 4.5-6.3zm55.5-97.5c6.7-1.5 7.5-4.7 9.3-6.2c1.7 6 2 12.3-0.1 18.4c-1.7 4.7-5.7 10-9.9 11.1c0.7-5.9-1.9-11-6.6-12.1c-2.2-0.5-1.9 0.3-3-1.7c-0.6-1.2-0.9-2.1-1.5-3.2c-1.1-2.1-2.4-3.8-3.2-5.8c4.6 0 10.7 0.4 15-0.5zm-50-0.1c3.9 0.6 7.2 0.6 11.1 0.6c1.8 2.2 4.2 7 4.8 10.3l-6.9 0.1l-0.1 35.5c5 0.2 25.6 0.6 30.1-0.8c3.1-1 4-2 6-3.8l0.4-0.4c3.6 6.4 1.3 23.4-9.8 28c0.6-20.2-21-9.2-25.6-13.5c-3-2.9-4.7-4.8-8.5-7c-1.9-1.1-3.7-1.6-5.5-2.6c-0.6-8.3-0.1-18.2-0.1-26.6c0-14-0.9-9.6-5-22c1 0 6.9 1.9 9.1 2.2zm-39.6 97.7c1.1-2.9 1.4-6.7 1.4-10c0.6 0 8.1 1.2 12.8 1.3c1.9 6.9-0.8 10.8 7.8 18.2c0 0.1 0.3 0.3 0.4 0.4c0.4 0.4 0.3 0.2 0.6 0.6c-5.7 2.6-21.7 2-27.5-4.3c1.6-2.2 3.2-2.5 4.5-6.2z" />
	</g>
</svg>